<?xml version="1.0" standalone="no"?>
<!DOCTYPE svg PUBLIC "-//W3C//DTD SVG 20010904//EN"
 "http://www.w3.org/TR/2001/REC-SVG-20010904/DTD/svg10.dtd">
<svg version="1.0" xmlns="http://www.w3.org/2000/svg"
 width="5000.000000pt" height="5000.000000pt" viewBox="0 0 5000.000000 5000.000000"
 preserveAspectRatio="xMidYMid meet">
<metadata>
Created by potrace 1.11, written by Peter Selinger 2001-2013
</metadata>
<g transform="translate(0.000000,5000.000000) scale(0.100000,-0.100000)"
fill="#000000" stroke="none">
<path d="M42697 43424 c-2 -2 -278 -10 -657 -19 -139 -3 -421 -15 -480 -20
-30 -3 -120 -7 -200 -11 -80 -3 -167 -7 -195 -9 -27 -2 -93 -7 -145 -10 -52
-3 -120 -8 -150 -10 -50 -4 -133 -9 -295 -20 -70 -4 -185 -14 -235 -20 -19 -2
-66 -7 -105 -10 -38 -4 -88 -8 -110 -10 -22 -2 -76 -6 -120 -10 -44 -4 -91 -8
-105 -10 -14 -2 -59 -7 -100 -10 -41 -3 -82 -8 -90 -10 -8 -2 -49 -7 -90 -10
-41 -4 -83 -9 -93 -11 -10 -2 -48 -6 -85 -9 -73 -6 -78 -7 -267 -30 -71 -8
-150 -18 -175 -21 -25 -3 -97 -12 -160 -20 -115 -15 -138 -18 -239 -29 -30 -4
-63 -9 -75 -11 -12 -2 -42 -6 -67 -9 -25 -3 -54 -7 -65 -9 -27 -5 -92 -15
-144 -21 -25 -3 -52 -8 -60 -10 -8 -2 -37 -7 -65 -10 -27 -3 -75 -10 -105 -15
-30 -5 -73 -12 -95 -15 -22 -3 -51 -7 -65 -10 -14 -2 -36 -7 -50 -10 -14 -2
-45 -7 -70 -10 -25 -3 -52 -8 -60 -10 -8 -2 -32 -6 -52 -9 -61 -9 -109 -17
-132 -22 -11 -2 -37 -7 -56 -10 -34 -5 -127 -20 -172 -28 -13 -2 -63 -12 -113
-21 -49 -10 -101 -19 -115 -21 -14 -3 -36 -7 -50 -9 -14 -3 -36 -7 -50 -10
-14 -3 -50 -10 -80 -16 -30 -5 -66 -12 -80 -15 -14 -2 -74 -14 -135 -25 -60
-12 -121 -23 -134 -25 -12 -3 -51 -11 -85 -19 -33 -8 -72 -16 -86 -19 -14 -2
-36 -7 -50 -10 -14 -3 -36 -8 -50 -10 -14 -2 -45 -9 -70 -15 -25 -5 -56 -12
-70 -15 -97 -19 -286 -60 -400 -86 -74 -18 -146 -34 -160 -36 -14 -3 -41 -9
-60 -14 -19 -5 -48 -11 -65 -14 -35 -6 -857 -214 -995 -251 -52 -15 -102 -28
-110 -30 -8 -2 -67 -17 -130 -35 -63 -17 -122 -33 -130 -35 -8 -2 -49 -13 -90
-25 -41 -12 -100 -28 -130 -37 -30 -8 -84 -23 -120 -34 -36 -11 -72 -22 -80
-24 -40 -8 -501 -149 -630 -192 -25 -8 -54 -17 -65 -19 -11 -2 -31 -8 -45 -13
-14 -5 -180 -60 -370 -121 -190 -61 -367 -120 -395 -130 -27 -10 -129 -46
-225 -80 -96 -34 -213 -75 -260 -92 -116 -41 -460 -168 -485 -179 -11 -5 -47
-18 -80 -29 -33 -12 -69 -25 -80 -30 -11 -5 -73 -30 -138 -55 -291 -113 -556
-219 -727 -289 -304 -127 -472 -197 -525 -221 -27 -13 -160 -71 -295 -130
-135 -59 -288 -128 -340 -152 -52 -25 -153 -72 -225 -105 -245 -112 -470 -222
-960 -468 -461 -232 -536 -271 -759 -392 -49 -26 -91 -48 -92 -48 -5 0 -448
-245 -629 -347 -257 -146 -571 -330 -810 -475 -126 -77 -237 -144 -245 -149
-460 -275 -1448 -926 -1925 -1268 -66 -48 -130 -93 -142 -101 -94 -64 -761
-556 -823 -607 -17 -15 -149 -117 -265 -205 -65 -50 -617 -489 -690 -549 -25
-21 -112 -94 -145 -123 -14 -11 -92 -77 -175 -146 -132 -110 -512 -435 -525
-450 -3 -3 -36 -32 -75 -65 -38 -33 -115 -100 -170 -150 -55 -49 -140 -126
-190 -170 -83 -75 -143 -129 -219 -199 -17 -16 -85 -79 -151 -141 -66 -62
-136 -127 -155 -145 -208 -189 -887 -863 -1220 -1210 -113 -118 -227 -237
-255 -266 -46 -47 -143 -152 -270 -292 -27 -30 -64 -69 -80 -86 -34 -35 -254
-281 -355 -396 -36 -41 -101 -115 -145 -165 -44 -49 -103 -117 -130 -150 -28
-33 -52 -62 -55 -65 -3 -3 -30 -34 -60 -70 -30 -36 -57 -67 -60 -70 -3 -3 -30
-34 -60 -70 -30 -36 -57 -67 -61 -70 -7 -6 -349 -423 -484 -590 -56 -69 -157
-197 -225 -285 -68 -88 -127 -162 -130 -165 -3 -3 -71 -90 -150 -195 -79 -104
-164 -217 -190 -250 -25 -33 -108 -145 -185 -250 -76 -104 -169 -230 -205
-280 -175 -236 -737 -1058 -932 -1360 -250 -389 -383 -601 -424 -672 -16 -29
-32 -53 -36 -53 -5 0 -8 -4 -8 -9 0 -4 -53 -95 -118 -202 -194 -318 -374 -627
-644 -1109 -286 -509 -789 -1491 -1022 -1992 -55 -119 -104 -224 -148 -318
-22 -47 -58 -125 -80 -175 -22 -49 -50 -112 -63 -140 -12 -27 -37 -84 -55
-125 -40 -93 -59 -136 -100 -225 -40 -88 -325 -769 -355 -850 -13 -33 -29 -73
-36 -90 -7 -16 -13 -32 -13 -35 -2 -6 -44 -113 -66 -165 -9 -22 -27 -67 -40
-100 -12 -33 -28 -73 -35 -90 -7 -16 -64 -171 -126 -344 l-114 -314 -65 -29
c-147 -65 -194 -87 -385 -184 -226 -114 -356 -187 -565 -317 -155 -97 -352
-226 -360 -237 -3 -3 -27 -21 -55 -40 -85 -57 -344 -258 -443 -344 -15 -13
-52 -45 -82 -71 -153 -132 -220 -194 -390 -365 -192 -193 -238 -241 -330 -349
-30 -36 -66 -76 -79 -90 -87 -95 -368 -465 -503 -666 -274 -405 -555 -935
-719 -1355 -16 -41 -34 -84 -39 -95 -20 -45 -117 -323 -162 -465 -61 -195
-153 -547 -171 -656 -3 -16 -12 -63 -20 -104 -19 -88 -44 -228 -52 -285 -3
-23 -7 -52 -10 -65 -4 -21 -15 -101 -30 -225 -3 -31 -13 -119 -20 -190 -26
-257 -27 -1091 -1 -1255 3 -14 7 -59 10 -100 32 -404 122 -876 267 -1390 53
-190 182 -553 264 -745 7 -16 20 -48 29 -70 32 -76 61 -141 132 -286 313 -644
675 -1187 1144 -1713 208 -234 550 -568 739 -722 13 -10 28 -24 35 -29 6 -6
61 -50 121 -98 137 -110 129 -103 200 -157 33 -25 64 -48 70 -53 42 -32 186
-130 306 -209 468 -308 1062 -600 1604 -790 310 -108 554 -177 916 -257 127
-28 159 -35 234 -47 17 -2 55 -9 85 -14 73 -12 125 -20 180 -26 25 -3 52 -7
60 -8 27 -5 144 -18 175 -21 17 -2 57 -6 90 -9 65 -7 107 -11 285 -23 158 -11
24419 -10 24550 1 58 5 123 10 145 11 53 4 103 10 270 34 202 29 241 36 480
87 145 30 324 81 535 152 221 73 316 111 570 224 75 34 331 163 398 202 35 20
68 36 73 36 5 0 9 5 9 10 0 6 4 10 9 10 6 0 54 28 108 61 832 520 1461 1159
1958 1989 83 140 293 552 333 655 11 28 43 109 72 180 83 210 193 558 235 746
22 102 45 211 50 239 3 19 8 42 10 50 3 8 7 33 10 55 3 22 8 54 11 70 9 53 11
69 18 125 4 30 9 66 11 80 36 244 49 626 32 970 -4 91 -10 179 -11 195 -2 17
-7 62 -11 102 -3 40 -8 82 -9 95 -2 13 -6 52 -10 88 -4 36 -13 101 -21 145 -8
44 -16 96 -19 115 -18 118 -87 414 -137 590 -49 170 -157 482 -203 585 -8 17
-28 64 -46 105 -88 205 -273 562 -350 675 -14 22 -30 47 -34 55 -37 80 -266
401 -419 590 -309 381 -639 698 -1032 991 -321 239 -526 366 -875 540 -560
279 -1121 453 -1771 549 -79 11 -102 14 -239 25 -89 7 -131 12 -135 17 -3 3
-5 25 -20 166 -3 23 -7 61 -10 85 -2 23 -7 70 -10 105 -4 35 -8 71 -10 81 -2
10 -6 42 -10 72 -13 112 -67 418 -81 461 -3 10 -7 30 -10 45 -50 291 -263 933
-426 1283 -101 216 -273 547 -319 612 -11 14 -19 29 -19 32 0 9 -107 178 -203
321 -100 148 -341 472 -377 505 -3 3 -32 37 -65 75 -251 295 -556 595 -830
818 -101 83 -271 212 -365 280 -112 80 -397 267 -406 267 -3 0 -28 15 -57 33
-29 18 -83 50 -122 72 -38 21 -86 47 -105 58 -166 93 -527 260 -745 344 -237
92 -698 235 -835 260 -14 2 -50 10 -80 18 -30 8 -68 16 -85 19 -16 3 -41 8
-55 11 -227 45 -487 83 -695 101 -38 3 -81 7 -94 9 -145 24 -762 23 -1016 0
-27 -3 -72 -7 -100 -10 -70 -6 -154 -15 -195 -21 -19 -3 -53 -7 -75 -10 -63
-8 -253 -38 -305 -49 -14 -2 -36 -7 -50 -9 -14 -3 -69 -14 -124 -25 -54 -12
-100 -21 -102 -21 -11 0 222 207 412 366 76 64 150 125 164 137 250 211 929
725 1280 969 276 191 922 610 1075 698 17 9 138 80 270 157 275 161 255 150
485 276 299 164 935 487 1140 580 19 8 71 32 115 52 165 77 206 95 264 120 33
14 85 36 115 50 30 14 57 25 60 25 3 0 40 16 82 35 41 19 78 35 80 35 3 0 30
11 60 25 30 14 58 25 62 25 4 0 18 6 32 13 14 7 97 41 185 76 88 35 174 69
190 76 17 7 145 56 285 108 335 125 519 188 1015 347 152 49 608 181 745 216
8 2 31 8 50 13 319 89 1046 258 1355 315 11 2 61 11 110 21 50 9 99 19 110 21
16 3 500 84 585 98 32 5 119 18 148 22 12 1 57 8 100 14 119 17 130 18 268 35
71 9 140 18 154 20 14 2 56 6 93 10 37 3 76 8 85 10 9 1 51 6 92 10 41 3 86 8
100 10 30 4 147 15 215 20 28 2 77 6 110 9 33 3 94 8 135 11 41 3 102 7 135
10 141 11 326 21 580 31 291 11 333 12 591 14 172 1 268 5 302 14 121 32 221
117 275 234 27 60 30 78 31 162 0 90 -2 99 -37 171 -58 120 -158 201 -284 230
-88 20 -952 -2 -1428 -36 -38 -3 -110 -7 -160 -10 -49 -3 -112 -8 -140 -10
-27 -2 -81 -7 -120 -10 -38 -3 -90 -7 -115 -10 -25 -2 -72 -7 -105 -10 -33 -4
-76 -8 -95 -10 -19 -3 -60 -7 -90 -10 -30 -3 -71 -7 -90 -10 -19 -3 -60 -7
-90 -10 -30 -3 -72 -8 -92 -10 -21 -3 -55 -7 -75 -10 -21 -2 -76 -9 -123 -15
-47 -6 -101 -13 -120 -15 -19 -2 -54 -7 -77 -10 -23 -3 -55 -7 -70 -9 -78 -11
-406 -62 -452 -71 -12 -2 -42 -7 -65 -9 -22 -3 -52 -8 -66 -11 -65 -13 -77
-15 -110 -20 -33 -5 -123 -21 -172 -30 -39 -8 -532 -106 -548 -110 -26 -6
-212 -46 -229 -50 -9 -2 -46 -10 -82 -19 -37 -8 -78 -17 -90 -20 -21 -4 -106
-24 -174 -42 -11 -3 -31 -7 -45 -10 -26 -6 -215 -54 -410 -105 -779 -206
-1679 -505 -2445 -814 -104 -42 -203 -82 -220 -90 -16 -7 -109 -47 -205 -88
-96 -41 -200 -86 -230 -100 -30 -14 -95 -43 -145 -65 -49 -22 -130 -58 -180
-81 -49 -23 -126 -59 -170 -79 -160 -74 -833 -415 -990 -502 -27 -15 -79 -43
-115 -62 -36 -20 -81 -44 -100 -55 -19 -11 -62 -35 -95 -53 -595 -330 -1376
-830 -2010 -1286 -182 -131 -667 -496 -701 -528 -7 -6 -27 -22 -45 -36 -27
-21 -313 -252 -384 -311 -165 -137 -459 -390 -475 -408 -3 -3 -23 -21 -45 -40
-22 -19 -67 -59 -101 -90 -33 -31 -105 -96 -159 -146 -54 -49 -140 -128 -189
-175 -139 -129 -753 -745 -830 -831 l-67 -77 -47 52 c-26 28 -67 73 -92 101
-64 71 -441 449 -525 526 -111 101 -202 180 -310 269 -55 45 -119 98 -143 118
-219 180 -645 476 -927 644 -266 159 -552 309 -849 447 l-89 42 29 32 c16 18
52 57 79 87 187 211 413 448 771 805 232 231 333 329 563 545 157 147 392 360
550 500 41 36 79 70 85 75 25 24 306 263 351 300 27 22 65 54 85 71 392 340
1243 983 1854 1401 276 189 483 325 696 458 69 43 148 92 175 110 92 59 260
162 295 183 19 11 78 46 130 77 237 143 806 464 1110 624 115 61 924 464 990
494 19 8 78 35 130 60 128 60 471 215 595 267 55 23 114 48 130 55 17 7 98 41
180 75 83 34 166 69 185 77 19 8 44 19 55 24 55 23 429 168 570 221 370 139
1144 406 1260 434 6 2 93 28 195 60 102 31 214 65 250 75 36 10 112 32 170 49
308 90 869 237 1170 305 452 102 1007 218 1200 250 42 7 394 66 420 70 14 3
45 8 70 11 25 3 54 8 65 10 11 3 34 6 50 9 287 44 359 55 410 61 33 3 62 8 65
9 3 2 34 6 70 10 36 3 72 8 80 10 8 2 42 7 75 10 33 3 71 7 84 10 13 2 49 7
80 10 31 3 72 8 91 10 19 2 64 7 100 11 36 3 73 8 83 10 10 1 53 6 95 10 42 3
84 7 92 9 8 1 53 6 100 10 47 3 96 8 110 10 14 2 63 7 110 10 47 4 105 8 130
10 25 3 83 7 130 10 47 3 101 8 120 10 20 2 81 7 135 10 55 3 136 7 180 10 44
3 134 7 200 10 66 3 156 8 200 10 167 9 451 16 766 20 249 3 338 7 375 18 188
57 307 219 299 409 -8 192 -144 353 -326 386 -70 13 -784 5 -1154 -13 -171 -8
-303 -15 -375 -20 -41 -2 -120 -7 -175 -10 -55 -3 -120 -8 -145 -10 -25 -2
-90 -7 -145 -11 -107 -7 -121 -8 -235 -18 -141 -13 -165 -15 -240 -21 -41 -3
-86 -8 -100 -10 -14 -2 -59 -7 -100 -10 -41 -3 -86 -8 -100 -10 -14 -2 -54 -6
-90 -10 -36 -4 -76 -8 -90 -10 -14 -2 -47 -6 -75 -10 -109 -11 -151 -16 -176
-21 -15 -2 -47 -6 -70 -9 -50 -6 -73 -9 -219 -29 -58 -8 -127 -18 -155 -21
-27 -3 -75 -10 -105 -15 -30 -5 -77 -12 -105 -15 -27 -4 -61 -8 -75 -11 -26
-4 -67 -11 -125 -19 -68 -10 -112 -17 -270 -45 -88 -16 -178 -31 -200 -35 -22
-3 -47 -7 -55 -10 -8 -2 -31 -6 -50 -9 -93 -15 -541 -103 -750 -148 -207 -44
-191 -41 -283 -62 -37 -9 -80 -18 -97 -21 -16 -3 -42 -10 -57 -16 -15 -6 -29
-10 -31 -9 -4 2 -297 -67 -452 -107 -712 -182 -1240 -338 -1900 -560 -291 -98
-875 -307 -955 -342 -11 -5 -159 -64 -330 -131 -271 -107 -551 -223 -680 -281
-22 -10 -121 -53 -220 -97 -99 -44 -211 -94 -250 -112 -38 -18 -95 -44 -125
-57 -183 -84 -999 -487 -1125 -556 -33 -18 -105 -57 -160 -86 -153 -82 -573
-314 -635 -351 -30 -18 -80 -47 -110 -63 -30 -17 -133 -77 -228 -134 -96 -57
-175 -103 -177 -103 -2 0 -30 -17 -62 -37 -32 -21 -67 -43 -78 -50 -26 -15
-170 -103 -201 -123 -13 -8 -66 -42 -117 -74 -50 -33 -123 -80 -162 -105 -326
-208 -901 -601 -1200 -820 -177 -129 -629 -472 -733 -554 -249 -198 -370 -294
-387 -308 -380 -313 -571 -477 -914 -784 -19 -16 -39 -34 -45 -40 -87 -78
-207 -186 -232 -210 -17 -16 -58 -54 -90 -84 -315 -290 -1105 -1083 -1319
-1325 -6 -6 -55 -61 -110 -121 -55 -61 -127 -141 -160 -179 -33 -38 -76 -87
-96 -109 l-36 -41 -54 16 c-256 77 -362 106 -546 153 -116 29 -228 56 -250 60
-21 3 -54 10 -73 15 -19 5 -55 12 -80 15 -25 3 -53 8 -62 11 -30 9 -29 9 -418
69 -14 2 -49 7 -79 10 -30 4 -61 8 -70 10 -9 2 -54 6 -100 10 -47 4 -92 8
-100 10 -9 1 -63 6 -121 10 -58 4 -107 9 -110 10 -10 6 -417 18 -610 18 -175
1 -397 -7 -535 -18 -27 -2 -97 -7 -154 -10 -58 -3 -107 -8 -110 -9 -4 -2 -42
-7 -85 -11 -43 -4 -86 -8 -96 -10 -9 -2 -41 -6 -71 -9 -78 -9 -126 -15 -199
-27 -36 -6 -78 -13 -95 -15 -37 -6 -174 -30 -275 -50 -70 -13 -93 -18 -145
-29 -11 -3 -29 -7 -40 -9 -11 -2 -33 -7 -48 -11 -28 -7 -27 -6 20 58 26 35 75
102 108 148 142 197 405 545 582 769 6 8 33 43 60 76 81 103 101 128 120 151
10 12 30 37 44 55 88 109 330 404 432 523 226 266 493 571 621 709 50 54 99
108 109 120 59 68 294 320 457 490 193 202 833 840 1004 1002 94 87 179 168
191 179 18 17 209 193 265 245 43 39 190 171 230 206 25 21 54 48 65 59 11 11
50 45 85 75 36 30 67 57 70 60 6 6 201 175 240 208 14 11 36 31 50 43 14 11
45 38 70 58 25 20 47 38 50 42 19 20 507 418 737 600 477 378 1140 861 1698
1238 99 66 187 126 195 131 544 368 1458 920 2090 1263 194 105 327 176 410
220 52 27 141 74 198 104 136 71 632 319 752 376 52 24 138 65 190 90 149 71
312 147 316 147 2 0 36 15 76 34 201 94 733 325 933 406 44 18 94 38 110 45
25 11 117 48 400 160 11 4 40 16 65 25 25 9 167 63 315 119 149 57 288 109
310 116 22 7 130 45 240 85 287 103 915 311 1135 375 25 8 144 43 265 79 216
65 951 268 1015 281 8 2 105 26 215 54 200 50 318 78 365 87 14 3 52 12 85 21
33 8 67 16 75 18 8 2 121 27 250 55 129 28 246 54 260 56 14 3 45 10 70 15 63
15 79 18 123 24 22 4 49 10 61 14 11 5 24 9 29 9 4 0 20 3 35 6 15 3 88 17
162 31 74 14 146 27 160 30 41 8 193 36 225 41 17 3 41 7 55 10 14 2 52 8 85
14 33 5 70 12 81 14 12 2 39 7 60 10 22 4 46 8 54 11 8 2 38 6 65 10 28 3 59
8 70 10 11 3 36 7 55 9 19 3 94 15 165 26 72 12 149 23 171 26 23 3 51 6 62 9
11 2 42 6 69 10 86 12 108 15 133 20 14 3 41 7 60 9 31 4 155 20 235 31 76 10
195 25 245 30 30 3 66 8 80 10 14 2 57 7 95 10 39 3 81 7 95 9 29 5 128 16
180 21 42 4 138 13 200 20 160 17 204 21 335 30 50 4 106 8 125 10 19 2 76 6
125 10 50 3 108 8 130 10 22 2 87 7 145 10 58 4 121 8 140 10 19 2 96 6 170
10 74 4 164 8 199 10 35 2 136 7 225 11 88 3 193 8 231 9 39 2 250 6 470 10
571 8 612 10 674 35 239 94 336 357 214 585 -46 87 -151 167 -253 195 -72 19
-779 11 -1365 -15 -49 -2 -151 -7 -225 -10 -74 -3 -160 -8 -190 -10 -30 -2
-111 -6 -180 -10 -69 -3 -136 -8 -150 -10 -14 -2 -74 -6 -135 -10 -60 -3 -128
-8 -150 -11 -22 -2 -74 -6 -115 -9 -41 -2 -95 -7 -120 -9 -25 -3 -81 -8 -125
-12 -219 -19 -277 -24 -315 -29 -19 -3 -64 -7 -100 -10 -36 -2 -81 -6 -100 -9
-19 -3 -66 -8 -103 -11 -37 -4 -76 -8 -85 -10 -9 -1 -44 -6 -77 -9 -33 -3 -76
-8 -95 -11 -48 -6 -105 -13 -165 -20 -83 -10 -114 -14 -260 -34 -77 -11 -166
-22 -199 -26 -32 -3 -61 -7 -65 -9 -3 -2 -31 -7 -61 -11 -30 -3 -66 -8 -80
-10 -75 -12 -160 -25 -200 -30 -60 -8 -94 -14 -165 -26 -33 -6 -73 -13 -90
-16 -86 -13 -294 -47 -342 -57 -11 -3 -43 -8 -70 -12 -26 -5 -50 -9 -53 -9 -8
-2 -92 -16 -120 -21 -24 -3 -665 -130 -704 -139 -11 -3 -65 -14 -120 -25 -55
-12 -102 -23 -105 -24 -3 -2 -23 -7 -43 -10 -21 -3 -109 -22 -195 -42 -87 -20
-167 -38 -178 -40 -11 -2 -31 -6 -45 -9 -14 -3 -34 -7 -45 -9 -84 -17 -738
-185 -1100 -282 -246 -66 -296 -80 -495 -140 -63 -19 -140 -42 -170 -50 -30
-9 -80 -24 -110 -34 -30 -10 -133 -42 -229 -70 -162 -48 -818 -265 -996 -330
-44 -16 -138 -50 -210 -75 -157 -57 -526 -194 -650 -242 -197 -77 -372 -146
-400 -158 -16 -7 -136 -57 -265 -111 -129 -53 -253 -105 -275 -114 -22 -10
-128 -56 -236 -103 -199 -87 -237 -103 -367 -163 -41 -19 -76 -34 -78 -34 -3
0 -47 -20 -97 -44 -111 -53 -216 -102 -317 -149 -283 -131 -952 -465 -1075
-537 -16 -9 -88 -48 -160 -85 -71 -37 -134 -71 -140 -75 -5 -4 -50 -29 -100
-55 -82 -44 -152 -82 -290 -160 -27 -16 -68 -38 -90 -51 -91 -50 -241 -135
-255 -144 -8 -5 -94 -55 -190 -111 -229 -132 -630 -375 -790 -479 -8 -5 -107
-69 -220 -141 -775 -497 -1699 -1151 -2270 -1607 -30 -24 -68 -55 -85 -68
-120 -93 -539 -432 -590 -475 -16 -15 -91 -77 -165 -139 -74 -62 -160 -134
-190 -160 -115 -99 -385 -334 -390 -339 -3 -4 -43 -40 -90 -81 -47 -41 -109
-97 -139 -125 -29 -27 -59 -55 -65 -60 -47 -43 -264 -242 -277 -254 -9 -9 -80
-77 -159 -151 -221 -209 -268 -255 -523 -508 -325 -323 -735 -750 -987 -1027
-30 -34 -80 -88 -110 -121 -52 -57 -160 -177 -202 -226 -11 -13 -34 -39 -52
-58 -17 -19 -103 -118 -190 -220 -88 -102 -171 -198 -185 -215 -81 -92 -370
-444 -568 -690 -500 -624 -1043 -1364 -1424 -1941 l-80 -122 -82 -32 c-369
-146 -890 -412 -1282 -654 -115 -71 -383 -246 -410 -268 -10 -9 -139 -103
-184 -136 -97 -68 -450 -349 -471 -373 -3 -3 -43 -39 -90 -80 -175 -153 -508
-478 -654 -639 -32 -36 -75 -83 -95 -105 -20 -22 -75 -85 -121 -140 -47 -55
-87 -102 -90 -105 -11 -10 -188 -238 -256 -330 -220 -298 -431 -625 -633 -980
-24 -41 -86 -162 -139 -267 -92 -187 -96 -193 -126 -194 -17 -1 -76 -2 -131
-4 -105 -3 -325 -14 -385 -20 -19 -2 -78 -7 -130 -10 -52 -4 -98 -9 -101 -11
-3 -1 -37 -6 -75 -9 -38 -4 -80 -8 -94 -10 -14 -2 -47 -7 -75 -11 -27 -3 -59
-8 -70 -10 -11 -3 -39 -7 -61 -10 -23 -2 -53 -7 -65 -10 -13 -3 -35 -7 -49
-10 -14 -2 -36 -7 -50 -10 -14 -3 -36 -8 -50 -10 -14 -3 -47 -9 -75 -14 -27
-6 -59 -12 -70 -14 -48 -10 -255 -57 -305 -71 -30 -8 -55 -13 -57 -11 -3 2
100 273 202 531 91 231 355 854 390 921 8 16 15 32 15 36 0 3 15 39 34 80 18
40 48 107 66 148 18 41 62 138 98 215 35 77 77 168 93 203 73 158 91 196 154
327 80 167 396 799 487 975 63 121 111 210 168 315 15 28 53 99 85 160 47 89
195 357 302 545 11 19 35 62 53 95 18 33 55 96 81 140 25 44 56 96 67 115 127
225 552 927 626 1035 22 31 27 39 72 115 15 25 34 54 43 65 10 11 34 49 56 85
38 65 508 772 588 885 23 33 94 134 157 224 223 318 391 549 629 866 203 272
511 669 611 790 19 23 89 109 155 191 282 351 851 1019 1076 1265 13 14 65 70
114 124 50 55 99 109 110 121 111 122 161 177 188 206 18 18 95 101 172 183
363 389 934 959 1370 1370 208 197 219 207 261 245 33 30 153 139 323 295 24
22 49 45 55 50 6 6 67 60 136 120 148 131 189 166 204 180 9 9 176 153 256
221 190 163 335 284 475 399 94 76 172 141 175 144 3 3 39 33 80 66 100 80
225 179 260 208 8 7 56 44 105 82 50 38 113 88 140 111 202 167 1039 782 1465
1076 517 357 928 627 1435 943 330 205 832 505 845 505 5 0 10 5 10 10 0 6 4
10 9 10 5 0 95 49 199 109 105 60 217 124 249 142 32 17 93 52 135 75 43 24
80 44 84 44 3 0 18 8 32 18 15 11 72 43 127 72 55 30 120 65 145 78 25 13 97
52 160 85 63 33 169 89 235 124 147 78 841 425 1020 510 72 34 182 86 245 116
302 143 647 298 995 446 171 73 319 136 330 141 11 5 76 32 145 60 69 28 139
57 155 65 17 7 55 23 85 35 30 11 69 27 85 34 17 8 98 39 180 71 83 31 164 63
180 70 17 7 86 34 155 60 69 25 134 50 145 55 11 4 36 13 55 20 19 7 44 16 55
20 24 10 355 130 470 170 44 16 172 60 285 100 223 78 226 79 540 182 527 172
1565 478 1848 543 9 2 85 22 167 44 83 21 218 55 300 75 178 44 162 40 250 61
39 9 75 18 80 19 6 2 24 6 40 10 17 4 48 12 69 17 22 6 49 13 60 15 32 6 108
22 134 28 66 17 431 99 447 101 17 3 183 37 510 105 50 10 131 26 180 34 50 9
101 18 115 21 14 3 41 8 60 11 19 3 67 12 105 19 39 8 84 16 100 19 17 2 55 9
85 15 68 13 98 18 175 31 33 5 71 12 85 14 14 3 84 14 155 26 127 20 160 26
200 34 11 2 43 7 70 10 54 7 96 14 135 21 14 2 43 7 65 9 22 3 90 12 150 21
61 9 126 18 145 21 19 2 51 7 70 10 19 2 53 7 74 9 22 3 51 7 65 9 14 3 55 7
91 11 36 3 72 8 80 10 8 2 38 7 65 10 28 3 86 10 130 15 103 14 138 18 205 25
30 3 66 8 80 10 14 2 56 7 93 10 37 4 76 8 87 10 10 2 51 6 92 10 40 3 84 8
98 10 14 2 54 6 90 10 36 4 76 8 90 10 14 2 66 7 115 10 50 4 104 8 120 10 17
1 66 5 110 9 44 4 96 9 115 11 50 6 188 16 262 20 77 4 224 14 298 20 96 8
340 22 520 30 69 4 159 8 200 10 73 4 216 9 560 20 91 3 345 8 565 10 242 3
420 10 450 17 196 44 330 217 320 416 -8 163 -110 303 -263 364 -55 21 -71 22
-365 22 -170 1 -309 0 -310 0z m-20794 -18028 c87 -4 166 -9 175 -11 9 -1 58
-6 107 -10 50 -3 106 -8 125 -11 19 -2 55 -6 80 -9 25 -3 65 -7 90 -10 61 -6
141 -17 165 -21 10 -2 37 -6 60 -9 34 -5 65 -10 180 -30 52 -8 335 -67 370
-77 22 -5 51 -12 65 -15 14 -2 52 -11 85 -20 33 -8 65 -16 70 -18 54 -12 294
-82 415 -120 187 -59 551 -194 681 -253 24 -11 90 -41 147 -66 618 -277 1197
-639 1742 -1090 80 -66 147 -122 150 -125 3 -3 43 -39 90 -80 99 -87 582 -570
607 -607 10 -16 13 -28 7 -32 -14 -9 -206 -164 -220 -177 -6 -5 -44 -39 -85
-75 -132 -116 -246 -227 -444 -431 -153 -158 -192 -226 -202 -349 -14 -170 81
-330 237 -404 60 -29 73 -31 170 -31 98 0 109 2 173 33 49 24 87 54 140 109
244 257 460 462 640 606 377 302 693 502 1161 734 113 56 530 229 575 238 9 2
54 17 101 33 147 52 474 140 615 167 134 25 368 66 405 70 25 3 59 8 75 10 35
4 123 14 180 20 118 12 304 19 500 19 211 0 501 -10 514 -19 4 -2 47 -6 96
-10 50 -3 97 -7 105 -10 8 -2 40 -6 71 -10 31 -3 66 -7 77 -10 11 -2 37 -6 58
-10 94 -14 98 -15 219 -39 17 -4 132 -29 188 -41 10 -2 27 -7 37 -10 10 -3 28
-8 39 -10 140 -27 481 -136 716 -230 152 -60 527 -238 660 -312 288 -162 571
-352 820 -552 39 -31 72 -58 75 -61 3 -3 23 -20 45 -39 22 -18 85 -75 140
-125 673 -615 1190 -1373 1505 -2211 29 -77 56 -149 61 -160 21 -52 116 -373
124 -420 3 -16 10 -41 15 -55 10 -29 57 -240 66 -297 3 -21 9 -54 14 -73 5
-19 12 -60 16 -90 4 -30 8 -57 9 -60 1 -4 9 -63 20 -145 5 -30 14 -114 20
-165 11 -108 17 -155 21 -162 9 -14 -30 -20 -196 -33 -30 -3 -66 -7 -80 -10
-14 -2 -52 -7 -85 -10 -33 -4 -67 -8 -75 -10 -8 -2 -33 -7 -55 -10 -23 -3 -52
-7 -65 -10 -13 -3 -42 -7 -65 -10 -22 -3 -48 -8 -57 -11 -9 -3 -27 -7 -40 -9
-13 -3 -34 -7 -48 -10 -14 -3 -35 -7 -48 -10 -13 -2 -32 -7 -42 -10 -10 -3
-27 -8 -37 -10 -156 -32 -509 -135 -610 -177 -15 -6 -30 -12 -33 -12 -3 -1
-27 -10 -55 -21 -466 -175 -910 -413 -1310 -699 -227 -163 -285 -218 -324
-310 -71 -165 -29 -347 107 -467 99 -87 212 -118 351 -96 54 9 134 52 236 128
562 421 1175 710 1820 859 50 11 99 23 110 25 17 4 108 21 205 39 14 2 47 7
73 11 27 4 59 8 70 11 20 4 44 6 167 19 25 3 83 8 130 11 47 3 108 7 135 9 59
5 430 5 495 1 194 -13 267 -19 280 -21 8 -2 44 -6 80 -10 36 -3 72 -8 80 -10
8 -3 32 -7 52 -9 50 -7 147 -24 238 -42 41 -9 86 -18 100 -20 45 -9 253 -64
355 -95 281 -85 713 -266 910 -382 22 -13 65 -37 95 -54 236 -129 582 -376
815 -583 52 -45 345 -339 411 -410 143 -157 401 -498 499 -662 145 -243 256
-453 334 -631 48 -111 131 -319 131 -329 0 -4 5 -19 12 -35 6 -15 12 -30 13
-33 1 -6 39 -127 67 -215 18 -58 73 -275 82 -325 2 -14 7 -36 10 -50 3 -14 8
-38 11 -55 3 -16 12 -64 19 -105 8 -41 17 -100 21 -130 3 -30 8 -62 10 -70 2
-8 7 -51 11 -95 3 -44 8 -88 10 -99 24 -127 23 -810 -1 -934 -1 -9 -6 -48 -9
-86 -4 -38 -9 -72 -10 -75 -2 -3 -7 -33 -11 -66 -3 -33 -10 -78 -15 -100 -5
-22 -12 -60 -15 -85 -4 -25 -16 -83 -27 -130 -11 -47 -22 -96 -24 -110 -10
-54 -78 -289 -116 -404 -76 -227 -136 -373 -248 -601 -104 -211 -147 -287
-300 -530 -27 -43 -143 -209 -164 -236 -12 -14 -32 -41 -46 -59 -185 -248
-484 -562 -740 -776 -550 -461 -1187 -797 -1855 -978 -156 -42 -272 -71 -328
-80 -15 -3 -35 -7 -45 -10 -9 -3 -33 -7 -52 -10 -19 -3 -44 -7 -55 -10 -56
-11 -174 -27 -297 -41 -24 -2 -63 -7 -88 -9 -81 -9 -265 -18 -260 -12 3 3 222
222 486 488 513 514 519 522 547 645 30 132 -14 272 -118 376 -87 87 -220 130
-340 110 -146 -25 -106 10 -965 -848 l-785 -785 -650 0 -649 0 495 498 c449
451 498 503 522 558 46 105 52 211 18 308 -57 162 -199 266 -369 271 -45 2
-97 -2 -115 -7 -122 -40 -94 -14 -922 -840 l-790 -788 -649 0 -649 0 482 483
c265 265 493 500 508 521 57 86 82 212 61 310 -24 112 -111 227 -211 278 -127
64 -274 61 -397 -9 -27 -16 -350 -331 -823 -805 l-779 -778 -644 0 c-354 0
-644 2 -644 5 0 3 218 223 483 489 508 509 528 532 555 646 31 130 -15 284
-114 383 -57 56 -166 107 -244 113 -79 7 -183 -15 -246 -52 -26 -15 -373 -355
-824 -805 l-778 -779 -647 0 c-517 0 -645 3 -637 13 6 6 222 224 480 482 258
259 481 489 495 512 78 124 88 270 28 396 -99 207 -343 293 -546 193 -66 -33
-122 -86 -850 -815 l-780 -781 -650 0 -649 0 491 492 c508 510 523 528 553
637 53 199 -63 416 -260 486 -113 40 -258 23 -355 -41 -27 -18 -396 -380 -820
-804 l-770 -770 -650 0 -650 0 486 487 c267 269 496 502 507 519 40 59 69 167
65 241 -17 302 -315 476 -593 347 -47 -22 -167 -138 -839 -810 l-785 -784
-643 0 c-354 0 -643 3 -643 6 0 3 212 218 471 478 260 259 487 492 505 518
108 158 87 383 -50 518 -22 23 -73 57 -113 77 -61 30 -84 36 -151 39 -89 3
-131 -5 -212 -44 -46 -22 -177 -148 -837 -809 l-783 -783 -645 0 c-355 0 -645
2 -645 5 0 2 218 222 484 488 452 453 486 489 520 558 128 260 -38 557 -327
585 -41 4 -86 1 -119 -6 -131 -31 -105 -8 -942 -847 l-782 -783 -647 2 -646 3
488 490 c450 452 490 495 522 560 32 66 34 76 34 175 0 100 -2 109 -34 175
-99 201 -332 287 -536 198 -55 -24 -124 -90 -851 -816 l-791 -789 -484 5
c-266 3 -513 8 -549 11 -36 3 -101 8 -145 11 -44 4 -81 7 -82 8 -1 2 307 313
685 692 l688 690 27 74 c28 73 36 160 22 236 -11 57 -68 159 -117 207 -130
128 -314 152 -489 63 -19 -10 -413 -396 -877 -859 -699 -696 -865 -867 -907
-933 -1 -3 -182 43 -270 68 -208 61 -666 224 -717 255 -5 4 271 287 614 631
342 344 628 630 634 636 28 31 65 108 77 163 69 295 -194 555 -494 489 -107
-24 -116 -31 -756 -670 -337 -335 -666 -663 -731 -728 l-119 -119 -79 48 c-43
26 -97 59 -119 74 -22 15 -76 51 -120 80 -171 113 -445 315 -445 328 0 3 351
356 780 785 429 428 791 798 805 821 56 96 74 212 49 311 -60 227 -298 364
-513 294 -103 -33 -120 -49 -929 -859 l-800 -800 -90 98 c-157 171 -278 316
-420 504 l-80 107 771 773 c669 670 776 781 799 830 33 70 39 94 43 177 6 148
-76 288 -214 367 -121 69 -299 60 -417 -20 -22 -14 -353 -340 -737 -723 l-698
-697 -19 32 c-34 55 -166 332 -225 471 -63 148 -157 392 -153 397 2 2 352 353
779 781 427 428 788 796 801 818 140 230 44 512 -206 604 -62 23 -161 30 -227
16 -107 -22 -113 -27 -776 -689 -348 -346 -634 -628 -637 -625 -2 2 -6 18 -9
34 -3 17 -14 84 -25 150 -26 150 -48 305 -57 400 -21 216 -23 248 -31 429 l-7
148 775 777 c426 427 785 792 796 812 96 161 72 371 -57 496 -138 135 -317
161 -492 73 -29 -15 -189 -167 -482 -459 -241 -240 -440 -438 -443 -441 -7 -6
2 58 22 165 9 44 18 93 21 109 2 17 22 101 44 189 132 534 349 1098 599 1552
153 279 381 634 532 830 225 291 370 456 614 699 227 228 374 357 644 569 402
316 1009 663 1517 868 359 145 753 264 1130 343 177 36 183 37 333 61 123 19
212 30 320 40 36 3 79 8 95 10 146 19 619 25 850 12 72 -4 177 -10 235 -12
112 -6 209 -13 250 -20 58 -9 158 -25 195 -30 22 -3 49 -7 60 -10 11 -2 43 -7
70 -10 103 -13 233 -37 330 -61 55 -14 107 -27 115 -29 44 -9 411 -106 450
-118 39 -13 237 -85 410 -149 259 -96 672 -299 971 -479 286 -172 336 -204
521 -345 51 -39 118 -88 148 -110 60 -43 201 -160 266 -221 23 -21 79 -72 125
-113 45 -41 110 -100 143 -131 34 -31 79 -73 101 -93 163 -148 420 -136 571
26 128 137 145 340 44 499 -30 46 -136 152 -285 285 -44 39 -122 109 -174 155
-137 123 -185 162 -294 241 l-98 71 28 29 c15 16 200 202 409 413 210 210 393
402 407 426 94 163 63 377 -71 500 -65 60 -111 84 -192 103 -103 24 -230 3
-315 -54 -46 -30 -909 -895 -925 -926 -8 -16 -15 -31 -16 -32 -2 -2 -47 23
-101 56 -154 94 -256 148 -398 212 -27 12 -119 56 -203 96 -85 41 -158 74
-164 74 -5 0 -8 4 -6 10 2 5 260 267 574 582 534 535 574 578 605 643 31 64
33 78 33 165 0 108 -2 117 -40 194 -30 62 -109 143 -170 174 -126 64 -264 63
-397 -4 -18 -9 -326 -309 -685 -668 -641 -639 -698 -701 -717 -779 -5 -19 -12
-26 -24 -23 -26 8 -224 58 -246 62 -11 2 -72 18 -135 34 -116 31 -269 65 -344
75 -23 3 -48 8 -56 10 -8 2 -33 6 -55 9 -292 38 -302 40 -311 49 -8 7 36 94
121 242 343 597 759 1139 1250 1630 192 191 272 265 475 436 41 35 77 66 80
69 14 15 295 233 365 283 44 31 85 61 91 66 76 63 488 321 719 451 240 135
669 336 930 435 83 32 164 63 180 70 63 27 396 135 525 170 74 20 158 42 185
50 57 16 236 59 340 81 70 16 88 19 135 28 14 2 63 11 110 20 47 9 105 18 130
21 25 3 56 7 70 10 32 6 70 12 140 20 30 4 63 9 73 11 10 2 46 6 80 9 34 3 76
8 92 10 17 2 68 7 115 10 47 4 93 9 104 11 10 2 100 6 200 10 99 3 182 7 183
8 5 4 424 -2 566 -8z"/>
</g>
</svg>
